# xmcd
#
# Track frame offsets:
#	150
#	12054
#	31468
#	58216
#	75021
#	91358
#	104799
#	123197
#	142449
#	162618
#	191892
#
# Disc length: 4440 seconds
# Revision: 4
# Processed by: cddbd v1.5.2PL0 Copyright (c) Steve Scherf et al.
# Submitted via: dBpowerAMP V12.0
#
DISCID=9911560b
DTITLE=Various Artist - American Folk Blues Festival 66 part 2
DYEAR=1966
DGENRE=Blues
TTITLE0=Otis Rush - It Takes Time
TTITLE1=Roosevelt Sykes - Night Time Is the Right Time
TTITLE2=Otis Rush - My Own Fault
TTITLE3=Little Brother Montgomery - Pinetops Boogie Woogie
TTITLE4=Sleepy John Estes - Yellow Jam Blues
TTITLE5=Junior Wells - Over Yonder Walls
TTITLE6=Sippie Wallace - Women Keep Your Mouth Shut
TTITLE7=Junior Wells - a Tribute to Sonny Boy Williamson
TTITLE8=Robert Pete Williamson - Louise
TTITLE9=Big Joe Turner - Felling Happy
TTITLE10=DATA
EXTD=
EXTT0=
EXTT1=
EXTT2=
EXTT3=
EXTT4=
EXTT5=
EXTT6=
EXTT7=
EXTT8=
EXTT9=
EXTT10=
PLAYORDER=
